<svg width="25" height="25" viewBox="0 0 25 25" fill="none" xmlns="http://www.w3.org/2000/svg">
<path d="M1.875 25C1.375 25 0.9375 24.7656 0.5625 24.2969C0.1875 23.8281 0 23.2812 0 22.6562V2.34375C0 1.71875 0.1875 1.17188 0.5625 0.703125C0.9375 0.234375 1.375 0 1.875 0H23.125C23.625 0 24.0625 0.234375 24.4375 0.703125C24.8125 1.17188 25 1.71875 25 2.34375V22.6562C25 23.2812 24.8125 23.8281 24.4375 24.2969C24.0625 24.7656 23.625 25 23.125 25H1.875ZM12.5 13.2031L1.875 4.49219V22.6562H23.125V4.49219L12.5 13.2031ZM12.5 10.8594L23 2.34375H2.03125L12.5 10.8594ZM1.875 4.49219V2.34375V22.6562V4.49219Z" fill="#FCFBFB"/>
</svg>
