<svg width="65" height="27" viewBox="0 0 65 27" fill="none" xmlns="http://www.w3.org/2000/svg">
<path d="M17.4348 13.4996C17.4348 15.4728 15.8008 17.1096 13.7389 17.1096C11.6769 17.1096 10.043 15.4728 10.043 13.4996C10.043 11.5265 11.6769 9.88965 13.7389 9.88965C15.8008 9.88965 17.4348 11.5265 17.4348 13.4996Z" fill="#3B3561" stroke="#3B3561" stroke-width="2.5"/>
<path fill-rule="evenodd" clip-rule="evenodd" d="M24.0682 17.8373C22.3543 21.7411 18.396 24.5 13.7386 24.5C7.49023 24.5 2.5 19.534 2.5 13.5C2.5 7.46598 7.49023 2.5 13.7386 2.5C18.8144 2.5 23.0599 5.77697 24.4747 10.2414C24.6567 10.2429 24.8431 10.2464 25.0331 10.25C25.292 10.255 25.5576 10.26 25.8283 10.26C26.099 10.26 26.3647 10.255 26.6236 10.25C26.7764 10.2471 26.9269 10.2443 27.0746 10.2425C25.5915 4.36034 20.1833 0 13.7386 0C6.15099 0 0 6.04416 0 13.5C0 20.9558 6.15099 27 13.7386 27C19.784 27 24.9174 23.1632 26.7545 17.8325C26.711 17.8317 26.6674 17.8308 26.6235 17.83C26.3646 17.8251 26.099 17.82 25.8283 17.82C25.5576 17.82 25.292 17.8251 25.0331 17.83C24.6991 17.8364 24.3763 17.8425 24.0682 17.8373Z" fill="#3B3561"/>
<line x1="24.1799" y1="9.5498" x2="50.5581" y2="9.5498" stroke="#3B3561" stroke-width="2.5"/>
<path d="M49.4595 17.2803C48.5802 17.2803 46.1622 19.0803 45.0631 19.9803L41.2163 17.2803L36.82 22.1403L33.5227 17.2803H24.73" stroke="#3B3561" stroke-width="2.5"/>
<path d="M49.4595 9.17969L60.9999 13.4997L48.9099 17.2797" stroke="#3B3561" stroke-width="2.5"/>
</svg>
